<svg width="38" height="30" viewBox="0 0 38 30" fill="none" xmlns="http://www.w3.org/2000/svg">
<path d="M7.91016 14.9922H7.17773C5.35482 14.9922 3.69466 14.2598 2.19727 12.7949C0.732422 11.2975 0 9.53971 0 7.52148C0 5.43815 0.732422 3.69661 2.19727 2.29688C3.69466 0.897135 5.51758 0.197266 7.66602 0.197266C10.1074 0.197266 12.0931 1.17383 13.623 3.12695C15.1855 5.08008 15.9668 7.79818 15.9668 11.2812C15.9668 14.4714 15.2832 17.4824 13.916 20.3145C12.5814 23.1139 10.9212 25.3438 8.93555 27.0039C6.98242 28.6641 5.20833 29.4941 3.61328 29.4941C2.60417 29.4941 1.77409 29.1849 1.12305 28.5664C0.504557 27.9154 0.195312 27.1341 0.195312 26.2227C0.195312 24.7578 0.86263 23.6836 2.19727 23C3.92253 21.9909 5.27344 20.8841 6.25 19.6797C7.22656 18.4753 7.77995 16.9128 7.91016 14.9922ZM29.3945 14.9922H28.8086C26.9531 14.9922 25.2604 14.2598 23.7305 12.7949C22.2331 11.3301 21.4844 9.57227 21.4844 7.52148C21.4844 5.4707 22.2331 3.74544 23.7305 2.3457C25.2279 0.913411 27.0508 0.197266 29.1992 0.197266C31.6732 0.197266 33.6751 1.15755 35.2051 3.07812C36.735 4.9987 37.5 7.73307 37.5 11.2812C37.5 14.569 36.8164 17.6126 35.4492 20.4121C34.1146 23.179 32.4544 25.3926 30.4688 27.0527C28.5156 28.6803 26.7253 29.4941 25.0977 29.4941C24.056 29.4941 23.2259 29.1849 22.6074 28.5664C21.9889 27.9479 21.6797 27.1667 21.6797 26.2227C21.6797 24.7904 22.347 23.7161 23.6816 23C25.5371 21.9258 26.9206 20.819 27.832 19.6797C28.7435 18.5078 29.2643 16.9453 29.3945 14.9922Z" fill="#DCDCDC"/>
</svg>
